PathFileType	4	(X/Y/Z)	/Users/visionmauri/1_7_1_f_Sports2D/1_7_1_f_Sports2D_m_person00.trc
DataRate	CameraRate	NumFrames	NumMarkers	Units	OrigDataRate	OrigDataStartFrame	OrigNumFrames
30.0	30.0	8	22	m	30.0	243	389
Frame#	Time	Hip			RHip			RKnee			RAnkle			RBigToe			RSmallToe			RHeel			LHip			LKnee			LAnkle			LBigToe			LSmallToe			LHeel			Neck			Head			Nose			RShoulder			RElbow			RWrist			LShoulder			LElbow			LWrist			
		X1	Y1	Z1	X2	Y2	Z2	X3	Y3	Z3	X4	Y4	Z4	X5	Y5	Z5	X6	Y6	Z6	X7	Y7	Z7	X8	Y8	Z8	X9	Y9	Z9	X10	Y10	Z10	X11	Y11	Z11	X12	Y12	Z12	X13	Y13	Z13	X14	Y14	Z14	X15	Y15	Z15	X16	Y16	Z16	X17	Y17	Z17	X18	Y18	Z18	X19	Y19	Z19	X20	Y20	Z20	X21	Y21	Z21	X22	Y22	Z22
243	8.120876288659794	2.1971662007157042	0.6483408972375594	0.0301	2.1315704048376687	0.7145374672380852	0.0301	1.8756638146153546	0.4855320891729946	0.129	1.6275790176576952	0.24059293809915122	0.023	1.5545964507119674	0.18102144589042757	0.2179	1.5304053147511432	0.21664427482861232	0.1804	1.59738101546148	0.20137426746825315	-0.0119	2.2511805003792578	0.5754728112501027	0.0301	2.026622445439309	0.38000163130704273	0.129	1.7742607468915765	0.1851499451850066	0.023	1.6821778788676465	0.12262488419062913	0.2179	1.7204361996797917	0.09694934217761289	0.1804	1.745471741718917	0.1531388759459871	-0.0119	2.5537506472209563	0.9270586576968951	0.0008	2.7227391432590524	1.0751929471693453	0.0655	2.5862272938247597	0.949407136298838	0.1076	2.4239890240856266	1.0323392449481663	-0.01275	2.225893326398161	0.9398406019945896	0.0702	2.044700761136791	0.864095932615571	0.1076	2.6377778917114747	0.7872818045775634	-0.01275	2.510140736083282	0.5918086919571376	0.0702	2.4803598765654993	0.559380315686445	0.1076
244	8.154295532646048	2.1935349481722244	0.646456463761024	0.0301	2.127933373398679	0.7117606053286252	0.0301	1.8739877509698786	0.47864218165318606	0.129	1.6218968830762	0.2342188232996726	0.023	1.5564258989962507	0.16954379094883656	0.2179	1.528625996758771	0.20475309802981298	0.1804	1.5906293671190261	0.19569697690636173	-0.0119	2.246829559019652	0.5740024009181732	0.0301	2.0231107704516065	0.37975907656222213	0.129	1.7744289976498167	0.1874704160997652	0.023	1.6804360376076202	0.12139523365040389	0.2179	1.7220762834105048	0.09904900840489655	0.1804	1.746305200094812	0.15544546169054466	-0.0119	2.553367140487952	0.9308851196584589	0.0008	2.7246421813954074	1.077401338262383	0.0655	2.591084878632035	0.9499476734953883	0.1076	2.4202045409646797	1.0345186987806254	-0.01275	2.224074032346132	0.9407614111600915	0.0702	2.0440905535964378	0.8654950543974874	0.1076	2.6369442274142534	0.7862821659001196	-0.01275	2.506309959120656	0.5909474437798523	0.0702	2.472824360010821	0.558184211493234	0.1076
245	8.187714776632303	2.190614627548859	0.6454760808667663	0.0301	2.1234700854037722	0.7082218600245478	0.0301	1.871909823567038	0.4731708958168495	0.129	1.6199305483751834	0.22807919478027636	0.023	1.5562960259557468	0.1558140453666519	0.2179	1.526952870414952	0.19301900377453216	0.1804	1.587600320598209	0.1905709203827582	-0.0119	2.2412665386939916	0.5725793397299972	0.0301	2.020156550080089	0.3797071744620748	0.129	1.777692809083183	0.19334166727898255	0.023	1.681217197627421	0.12250365681817554	0.2179	1.724664620442293	0.10403039485256622	0.1804	1.742547278377022	0.16010319134400203	-0.0119	2.5533688434600617	0.9357340470602703	0.0008	2.7246816016648916	1.0795178720658356	0.0655	2.5956452839043904	0.9532768897444899	0.1076	2.4156478884044765	1.037368837787717	-0.01275	2.2217132842037652	0.9421497953357554	0.0702	2.0444544302029373	0.8670287063846975	0.1076	2.6350408003172716	0.7855318915065954	-0.01275	2.5033523088694096	0.5910571812091976	0.0702	2.467676062636362	0.5569141211902182	0.1076
246	8.221134020618557	2.1884276756688434	0.645891397856943	0.0301	2.1198042663321046	0.7063603258613604	0.0301	1.8706002196547573	0.4694568084984567	0.129	1.618812016211426	0.22221824039193486	0.023	1.5513305808576374	0.14305633249640878	0.2179	1.5224869504502858	0.18385739957246536	0.1804	1.5859487540521886	0.18612500350960154	-0.0119	2.237294824146737	0.5721805633797185	0.0301	2.0193310015413735	0.3795625198802891	0.129	1.7848560130063003	0.20193947010233543	0.023	1.683798312118573	0.1239682199707759	0.2179	1.7270967592310598	0.10783712829825595	0.1804	1.7417314561311386	0.16791048393414928	-0.0119	2.552203518779036	0.9398646305172369	0.0008	2.7245954941949764	1.0833353920379343	0.0655	2.5992215796728995	0.9585457571142064	0.1076	2.4113178557420563	1.040741698006762	-0.01275	2.2197476704418335	0.9447500050815596	0.0702	2.0456607919970193	0.8680197326556318	0.1076	2.6321913266644157	0.7874104128849464	-0.01275	2.50095576309596	0.5930291333057411	0.0702	2.465965333439841	0.5550750071711363	0.1076
247	8.25455326460481	2.1865313697998414	0.6478636768499255	0.0301	2.118233856511136	0.7079449625374791	0.0301	1.869904882239491	0.4677944310783096	0.129	1.6162686839985003	0.21738737665006447	0.023	1.542562609290819	0.13410446845817423	0.2179	1.514189562536423	0.17831474121934754	0.1804	1.5839128487862786	0.18273305033346504	-0.0119	2.2359972390048797	0.5732010270430185	0.0301	2.0183784720757245	0.37863020691084115	0.129	1.7934470902144952	0.21011335003733608	0.023	1.6861457484252718	0.12271295144951051	0.2179	1.7283005686267794	0.10613308249331381	0.1804	1.745974487666927	0.17610791084505253	-0.0119	2.5487770349955645	0.9434933087186173	0.0008	2.7254869021879644	1.0903844604160622	0.0655	2.5997217856084442	0.9654262227923615	0.1076	2.4080112898770643	1.0455116714703176	-0.01275	2.220865078413549	0.9498110099180813	0.0702	2.0467276024266767	0.8686192437774194	0.1076	2.629469103937686	0.7930824439367704	-0.01275	2.4985029775749954	0.5960984721655136	0.0702	2.46794248018646	0.5562113157660287	0.1076
248	8.287972508591064	2.1850127437758733	0.6502062645608226	0.0301	2.1164767336534887	0.7107633614475738	0.0301	1.867455038443818	0.46780477529148523	0.129	1.6126129835440033	0.21408524321299502	0.023	1.534686017036403	0.12936735909968414	0.2179	1.5057592958014558	0.175535408171354	0.1804	1.5817293597548514	0.17996993344280446	-0.0119	2.2355593731085555	0.5745383246881376	0.0301	2.0160631198686616	0.377725751822597	0.129	1.7980345122745867	0.21283462146886808	0.023	1.6871373947048014	0.11959860783587792	0.2179	1.729097630549386	0.10112237650286544	0.1804	1.7499444145630945	0.18049887658287744	-0.0119	2.5453540622335766	0.9486461946886112	0.0008	2.7257597377539384	1.0996659064670693	0.0655	2.597261063272084	0.9743766798212813	0.1076	2.4049392347303824	1.0513878825645144	-0.01275	2.2231624739378777	0.9558444565098384	0.0702	2.0462530981799745	0.8700925171792796	0.1076	2.627720889764405	0.7997359202963706	-0.01275	2.4959989468993413	0.5982980670248018	0.0702	2.469770251522007	0.5591353328742558	0.1076
249	8.32139175257732	2.1833537062560295	0.6514802412352788	0.0301	2.112194522497832	0.7121471087929678	0.0301	1.8630791620377452	0.4692279052220305	0.129	1.6099385436144116	0.212589228670213	0.023	1.5316621448458005	0.12713842626023125	0.2179	1.5020002294533246	0.17353993001432755	0.1804	1.58063341915593	0.17811339433819814	-0.0119	2.234133172326185	0.5757543864587784	0.0301	2.0146869003640155	0.3788070857323334	0.129	1.7957759639660613	0.20857501431536105	0.023	1.6864723510538977	0.1173307146195823	0.2179	1.7297094544900578	0.09783608254685293	0.1804	1.7522929241462635	0.18160511724441486	-0.0119	2.543653257643017	0.9555235991799415	0.0008	2.7234271196832633	1.1091698443597644	0.0655	2.5935931354680464	0.9844360023926151	0.1076	2.400167981373339	1.0564375739540677	-0.01275	2.2224905153405974	0.9603920772579859	0.0702	2.0443066738738387	0.8729706165357031	0.1076	2.627232150755173	0.8051063166860697	-0.01275	2.4947627986328804	0.6001785362868547	0.0702	2.4708075804994714	0.5641234566045994	0.1076
250	8.354810996563574	2.1802701748636952	0.6526690259757532	0.0301	2.106618102027155	0.7129797005991735	0.0301	1.8602192398807258	0.4717582708144391	0.129	1.6090719780225047	0.2126051152854708	0.023	1.5326420543118213	0.12618235272649667	0.2179	1.5030659996304236	0.17137703137259744	0.1804	1.5804861515211899	0.1781725691262062	-0.0119	2.231299333079235	0.5779114775176162	0.0301	2.0132741238939476	0.3812309922378464	0.129	1.7902848956583326	0.20373397010969105	0.023	1.6848356202233838	0.11643515328237398	0.2179	1.7291435280438041	0.0977874813153172	0.1804	1.7567423825008073	0.1850088002512105	-0.0119	2.542475579659855	0.9628698855836778	0.0008	2.7201456445423466	1.1192104375820249	0.0655	2.5905991959687578	0.994296490535085	0.1076	2.394409879590299	1.0608106198363159	-0.01275	2.220062949216905	0.9642700321865325	0.0702	2.0426590524113863	0.8759645839621852	0.1076	2.6275435549480144	0.8110856646769216	-0.01275	2.4953196405573896	0.6036797221849555	0.0702	2.475957991418615	0.5748165905695306	0.1076
